<?xml version="1.0" encoding="UTF-8" standalone="no"?>
<!-- Created with Inkscape (http://www.inkscape.org/) -->

<svg
   version="1.1"
   id="svg18"
   width="2560"
   height="1401.3333"
   viewBox="0 0 2560 1401.3333"
   xmlns="http://www.w3.org/2000/svg"
   xmlns:svg="http://www.w3.org/2000/svg">
  <defs
     id="defs22">
    <clipPath
       clipPathUnits="userSpaceOnUse"
       id="clipPath1250">
      <path
         d="M 0,9917 H 1920 V 0 H 0 Z"
         id="path1248" />
    </clipPath>
  </defs>
  <g
     id="g26"
     transform="matrix(1.3333333,0,0,-1.3333333,-2697.4802,5138.2564)">
    <g
       id="g1244"
       transform="translate(2023.1102,2802.6924)">
      <g
         id="g1246"
         clip-path="url(#clipPath1250)">
        <g
           id="g1252"
           transform="translate(2472.5098,-460.5)">
          <path
             d="m 0,0 c 0,-834.778 -676.722,-1511.5 -1511.5,-1511.5 -834.778,0 -1511.5,676.722 -1511.5,1511.5 0,834.778 676.722,1511.5 1511.5,1511.5 C -676.722,1511.5 0,834.778 0,0"
             style="fill:#000000;fill-opacity:1;fill-rule:nonzero;stroke:none"
             id="path1254" />
        </g>
        <g
           id="g1256"
           transform="translate(913.5806,181.5947)">
          <path
             d="m 0,0 c -202.688,3.754 -397.311,33.054 -572.437,85.21 29.579,81.401 64.482,157.704 104.37,227.508 C -339.887,537.145 -175.125,668.517 0,687.732 Z m 0,-586.219 h -690.252 c 3.865,208.067 34.565,407.675 89.355,586.444 C -416.639,-54.902 -212.269,-85.827 0,-89.636 Z m 0,-586.164 c -212.269,-3.809 -416.639,-34.733 -600.897,-89.916 -54.79,178.768 -85.49,378.376 -89.355,586.444 H 0 Z m 0,-777.368 c -175.125,19.215 -339.887,150.589 -468.067,374.958 -39.888,69.805 -74.791,146.107 -104.37,227.508 175.126,52.157 369.749,81.457 572.437,85.21 z m -941.233,440.225 c 13.725,8.571 27.787,17.031 42.296,25.265 73.726,42.13 154.68,78.657 241.233,109.301 31.598,-87.395 68.964,-169.3 111.766,-244.259 67.451,-118.039 144.986,-213.052 229.58,-282.913 -244.427,69.524 -460.114,207.9 -624.875,392.606 m -57.816,69.412 c -165.211,212.717 -266.947,477.031 -276.582,764.259 h 495.686 c 3.923,-217.368 36.246,-426.444 93.893,-614.175 -92.268,-32.549 -178.656,-71.428 -257.366,-116.359 -19.159,-10.98 -37.648,-22.241 -55.631,-33.725 m 0,1618.154 c 17.983,-11.485 36.472,-22.745 55.631,-33.67 78.71,-44.986 165.098,-83.865 257.366,-116.415 -57.647,-187.675 -89.97,-396.751 -93.893,-614.174 h -495.686 c 9.635,287.283 111.371,551.597 276.582,764.259 m 682.691,462.073 c -84.594,-69.859 -162.129,-164.874 -229.58,-282.914 -42.802,-75.013 -80.168,-156.918 -111.766,-244.258 -86.553,30.645 -167.507,67.116 -241.233,109.245 -14.509,8.292 -28.571,16.694 -42.296,25.266 164.761,184.762 380.448,323.081 624.875,392.661 M -952.886,366.668 c -21.962,-22.018 -43.082,-44.65 -63.417,-67.787 -19.833,-22.577 -38.88,-45.659 -57.088,-69.189 -189.804,-245.602 -292.717,-545.266 -292.717,-860.729 0,-315.463 102.913,-615.128 292.717,-860.674 18.208,-23.586 37.255,-46.667 57.088,-69.188 20.335,-23.193 41.455,-45.827 63.417,-67.787 266.499,-266.5 620.841,-413.278 997.705,-413.278 V 779.89 c -376.864,0 -731.206,-146.724 -997.705,-413.222"
             style="fill:#fa0f0c;fill-opacity:1;fill-rule:nonzero;stroke:none"
             id="path1258" />
        </g>
        <g
           id="g1260"
           transform="translate(1001.6094,-1080.4795)">
          <path
             d="M 0,0 C 202.688,-3.754 397.311,-33.054 572.437,-85.21 542.858,-166.611 507.955,-242.914 468.067,-312.718 339.888,-537.145 175.126,-668.517 0,-687.732 Z M 0,586.219 H 690.253 C 686.388,378.152 655.687,178.544 600.897,-0.225 416.639,54.902 212.27,85.827 0,89.636 Z m 0,586.164 c 212.27,3.809 416.639,34.733 600.897,89.916 54.79,-178.768 85.491,-378.376 89.356,-586.444 H 0 Z m 0,777.368 c 175.126,-19.215 339.888,-150.589 468.067,-374.958 39.888,-69.805 74.791,-146.107 104.37,-227.508 C 397.311,1295.129 202.688,1265.828 0,1262.075 Z m 941.233,-440.225 c -13.724,-8.571 -27.787,-17.031 -42.296,-25.265 -73.726,-42.13 -154.679,-78.657 -241.233,-109.301 -31.598,87.395 -68.963,169.301 -111.766,244.259 -67.451,118.039 -144.986,213.052 -229.58,282.913 244.427,-69.524 460.115,-207.9 624.875,-392.606 m 57.817,-69.412 c 165.21,-212.717 266.946,-477.031 276.582,-764.259 H 779.945 c -3.922,217.368 -36.246,426.444 -93.893,614.175 92.268,32.549 178.656,71.428 257.366,116.359 19.16,10.98 37.648,22.241 55.632,33.725 m 0,-1618.154 c -17.984,11.485 -36.472,22.745 -55.632,33.67 -78.71,44.986 -165.098,83.865 -257.366,116.415 57.647,187.675 89.971,396.751 93.893,614.174 h 495.687 C 1265.996,298.936 1164.26,34.622 999.05,-178.04 M 316.358,-640.113 c 84.594,69.859 162.129,164.874 229.58,282.914 42.803,75.013 80.168,156.919 111.766,244.258 86.554,-30.645 167.507,-67.116 241.233,-109.245 14.509,-8.291 28.572,-16.694 42.296,-25.266 -164.76,-184.762 -380.448,-323.081 -624.875,-392.661 m 636.529,273.445 c 21.962,22.018 43.082,44.65 63.417,67.787 19.833,22.577 38.88,45.659 57.087,69.189 189.804,245.602 292.718,545.266 292.718,860.729 0,315.463 -102.914,615.128 -292.718,860.674 -18.207,23.586 -37.254,46.667 -57.087,69.188 -20.335,23.193 -41.455,45.827 -63.417,67.787 -266.499,266.5 -620.842,413.278 -997.706,413.278 V -779.89 c 376.864,0 731.207,146.724 997.706,413.222"
             style="fill:#ffffff;fill-opacity:1;fill-rule:nonzero;stroke:none"
             id="path1262" />
        </g>
      </g>
    </g>
  </g>
</svg>
